<?xml version="1.0" encoding="utf-8"?>
<!-- Generator: Adobe Illustrator 19.1.0, SVG Export Plug-In . SVG Version: 6.00 Build 0)  -->
<svg version="1.1" id="Layer_1" xmlns="http://www.w3.org/2000/svg" xmlns:xlink="http://www.w3.org/1999/xlink" x="0px" y="0px"
	 width="1427px" height="785px" viewBox="0 0 1427 785" enable-background="new 0 0 1427 785" xml:space="preserve">
<g id="fusiform">
	<path id="_x31_f_x5F_1" fill="#1BA8DD" d="M213.3,260.2v36.2h40.2v5h-40.2V339h-5v-83.7h50.4v4.9H213.3z"/>
	<path id="_x31_u" fill="#1BA8DD" d="M346.1,304.8c0,21.8-12.5,34.4-33.9,34.4c-21.4,0-33.9-12.6-33.9-34.4v-49.5h5v49.5
		c0,18.7,10.7,29.5,28.9,29.5s28.9-10.8,28.9-29.5v-49.5h5V304.8z"/>
	<path id="_x31_s" fill="#1BA8DD" d="M425,261.9l-2.3,4.6c-6.2-4.1-14.7-6.1-21.9-6.1c-13.3,0-21.9,5.5-21.9,14.3
		c0,25.5,49.2,12.3,49,43.2c0,12.9-11.6,21.3-29.1,21.3c-11.1,0-22.5-4.9-29.8-12.1l2.6-4.4c6.8,7.1,17.5,11.4,27.3,11.4
		c14.4,0,23.6-6.2,23.6-16c0.2-26.2-49-12.8-49-43c0-12.1,11-19.9,27.5-19.9C409.5,255.1,418.8,257.8,425,261.9z"/>
	<path id="_x31_i" fill="#1BA8DD" d="M456.5,339v-83.7h5V339H456.5z"/>
	<path id="_x31_f_x5F_2" fill="#1BA8DD" d="M501.3,260.2v36.2h40.2v5h-40.2V339h-5v-83.7h50.4v4.9H501.3z"/>
	<path id="_x31_o" fill="#1BA8DD" d="M646.2,297.1c0,23.2-19.4,42-43.4,42s-43.4-18.8-43.4-42c0-23.2,19.4-41.9,43.4-41.9
		S646.2,273.9,646.2,297.1z M564.6,297.1c0,20.5,17.2,37.1,38.2,37.1s38.2-16.6,38.2-37.1c0-20.5-17.2-37-38.2-37
		S564.6,276.6,564.6,297.1z"/>
	<path id="_x31_r" fill="#1BA8DD" d="M708.7,310.6c-2.3,0.4-4.6,0.5-7.1,0.5h-24.5V339h-5v-83.7h29.6c20.7,0,32.5,10.1,32.5,27.5
		c0,14.2-7.3,23.6-20.6,26.9l21,29.2h-6L708.7,310.6z M701.8,306.2c17.5,0,27.4-8.3,27.4-23.2c0-14.7-9.9-22.8-27.4-22.8h-24.7v46
		H701.8z"/>
	<path id="_x31_m" fill="#1BA8DD" d="M840.7,339l-0.1-76.8l-34.4,67.7h-2.3l-34.6-67.7V339h-4.8v-83.7h6.9l33.6,65.9l33.4-65.9h6.9
		V339H840.7z"/>
</g>
<g id="cast">
	<path id="_x32_c" fill="#1BA8DD" d="M953,268.5l-11,13.4c-5.7-6.6-14-10.9-21.8-10.9c-14.4,0-25.5,11.1-25.5,25.7
		c0,14.6,11.1,25.9,25.5,25.9c7.5,0,15.8-3.8,21.8-9.8l11.1,12.1c-8.9,9.1-21.7,15-33.9,15c-25,0-43.9-18.6-43.9-42.9
		c0-24.2,19.3-42.4,44.7-42.4C932,254.6,944.7,260,953,268.5z"/>
	<path id="_x32_a" fill="#1BA8DD" d="M986,322.7l-6.6,16.3h-19.5l36.4-83.8h19.5l35.8,83.8h-20.2l-6.6-16.3H986z M1005.5,274.9
		l-13.3,32.6h26.5L1005.5,274.9z"/>
	<path id="_x32_s" fill="#1BA8DD" d="M1128.4,263.4l-7.3,15.7c-8.9-5.3-19.4-8.6-26.1-8.6c-6.3,0-10.7,2.3-10.7,6.8
		c0,15.4,44.7,6.8,44.5,37c0,16.4-14.3,25.3-32.8,25.3c-13.8,0-27.5-5.3-37-13.3l7.5-15.4c8.6,7.7,20.8,12.6,29.7,12.6
		c7.8,0,12.5-2.9,12.5-8c0-15.8-44.7-6.6-44.7-36.3c0-15.2,13.1-24.8,32.5-24.8C1108.3,254.3,1120,257.9,1128.4,263.4z"/>
	<path id="_x32_t" fill="#1BA8DD" d="M1184.3,271.2V339h-18.9v-67.8h-25.5v-16h70.1v16H1184.3z"/>
</g>
<text id="subtext" transform="matrix(1 0 0 1 237.0034 476)"><tspan x="0" y="0" fill="#2B3B66" font-family="'Montserrat-Regular'" font-size="40px" letter-spacing="2">A versatile and powerful platform to make </tspan><tspan x="-4.8" y="60" fill="#2B3B66" font-family="'Montserrat-Regular'" font-size="40px" letter-spacing="2">your O&amp;P business efficient and hassle-free.</tspan></text>
<g id="words">
	<g>
		<path d="M626.1,141.8h-54.5c0.7,15.2,11.3,25.4,25.7,25.4c8.5,0,16-3.1,21.1-8.6l2.9,3.2c-5.7,6.2-14.2,9.9-24.2,9.9
			c-17.6,0-30.4-12.9-30.4-31.3s12.8-31.4,30.4-31.4C615.5,109.1,626.5,122.6,626.1,141.8z M621.6,137.4
			c-1-14.1-10.2-23.7-24.4-23.7c-14,0-24.2,9.6-25.4,23.7H621.6z"/>
		<path d="M656.1,102.3v8.5h19.3v4.3h-19.3v56.5h-4.9v-56.5h-7.9v-4.3h7.9v-8.1c0-12.1,8.5-20.1,18.4-20c4.6,0,9.2,1.7,12.7,4.4
			l-2.3,4.1c-3-2.3-6.7-3.7-10.3-3.7C662.1,87.3,656.1,93.5,656.1,102.3z"/>
		<path d="M694.9,101.8c0-12.2,8.5-20.1,18.4-20.1c4,0.1,7.9,1.4,11,3.4l-0.1,5.1c-3.2-2.2-7.1-3.6-10.8-3.6
			c-7.8-0.1-13.7,5.9-13.7,14.7v8.5h19.3v4.4h-19.3v57.4h-4.9v-57.4H687v-4.4h7.9V101.8z M736.9,91.3c0,2.5-1.9,4.4-4.2,4.4
			c-2.4,0-4.2-1.9-4.2-4.4c0-2.4,1.8-4.3,4.2-4.3C735,87,736.9,88.9,736.9,91.3z M735.1,109.3v62.4h-4.9v-62.4H735.1z"/>
		<path d="M812.1,117.9l-2.9,3.6c-5-4.7-11.5-7.5-19.3-7.5c-15,0-25.7,10.9-25.7,26.5c0,15.8,10.8,26.7,25.7,26.7
			c8.4,0,15.6-3.1,20.4-8.7l3,3.2c-5.5,6.5-13.8,10.2-23.5,10.2c-17.6,0-30.5-12.9-30.5-31.3s12.9-31.4,30.5-31.4
			C798.8,109.1,806.6,112.4,812.1,117.9z"/>
		<path d="M845.7,91.3c0,2.5-1.9,4.4-4.2,4.4s-4.2-1.9-4.2-4.4c0-2.4,1.9-4.3,4.2-4.3S845.7,88.9,845.7,91.3z M839,171.6v-62.4h4.9
			v62.4H839z"/>
		<path d="M927.6,141.8h-54.5c0.7,15.2,11.3,25.4,25.7,25.4c8.5,0,16-3.1,21.1-8.6l2.9,3.2c-5.7,6.2-14.2,9.9-24.2,9.9
			c-17.6,0-30.4-12.9-30.4-31.3s12.8-31.4,30.4-31.4C916.9,109.1,927.9,122.6,927.6,141.8z M923,137.4c-1-14.1-10.2-23.7-24.4-23.7
			c-14,0-24.2,9.6-25.4,23.7H923z"/>
		<path d="M1006.1,133.6v38.1h-5v-37.1c0-12.8-7.5-20.4-20.4-20.4c-14.4,0.4-23.2,9.3-24.3,23.7v33.8h-5v-62.4h5v15.9
			c4.2-10.3,13.1-15.8,25.5-16C997.1,109.1,1006.1,118.4,1006.1,133.6z"/>
		<path d="M1064.3,167.3c-4,2.8-8.4,4.4-13.1,4.4c-8.9,0.1-14.1-5.6-14.1-17.4v-39.3h-9.1v-4.3h9.1V95.4h4.8v15.4h21.2v4.3h-21.2
			v38.7c0,8.9,3.5,13.2,9.9,13.1c3.6,0,7.3-1.3,10.5-3.6L1064.3,167.3z"/>
		<path d="M1086.1,171.6V82.8h5v88.9H1086.1z"/>
		<path d="M1138,180.6c-3.8,9.3-9.9,14.4-17.2,14.4c-4.6,0-8.6-1.2-11.9-3.6l2.2-4.3c2.8,1.9,6,2.9,9.5,2.9c5.6,0,10.4-4,13.4-11.3
			l2.9-7.1l-25.7-62.4h5.3l23,56.5l22.4-56.5h5.3L1138,180.6z"/>
	</g>
	<g>
		<path d="M626.1-0.2h-54.5c0.7,15.2,11.3,25.4,25.7,25.4c8.5,0,16-3.1,21.1-8.6l2.9,3.2c-5.7,6.2-14.2,9.9-24.2,9.9
			c-17.6,0-30.4-12.9-30.4-31.3s12.8-31.4,30.4-31.4C615.5-32.9,626.5-19.4,626.1-0.2z M621.6-4.6c-1-14.1-10.2-23.7-24.4-23.7
			c-14,0-24.2,9.6-25.4,23.7H621.6z"/>
		<path d="M690,17.3c-5.3,8.6-14.1,12.5-24.9,12.5c-12.3,0-20.6-7.8-20.6-18.3c0-10.4,8.9-16.8,23.2-16.8h22.2v-6.1
			c-0.1-10.5-6.2-16.9-18.7-16.9c-7.8,0-14.4,3.1-21,8.1l-2.4-3.8c7.4-5.4,14.6-8.9,24.1-8.9c14.7,0,22.8,8.1,22.9,21.1l0.2,41.4
			h-4.9L690,17.3z M690,9.3V-0.9h-21.8c-12.2,0-18.9,4.2-18.9,12.2c0,8.3,6.3,13.9,16.5,13.9C677.4,25.2,686.1,20.2,690,9.3z"/>
		<path d="M756.4-28l-2.2,4.1c-4.3-2.8-9.8-4.4-15.8-4.4c-8.7,0-15.6,3.4-15.6,10.8c0,16.8,36.4,8.5,36.4,30.5
			c0,11.6-10.4,16.8-21.7,16.8c-8.7,0-17.1-3.1-22.9-8.6l2.3-3.8c5.4,5,12.9,7.9,20.8,7.9c8.7,0,16.3-3.5,16.6-11.4
			c0.5-17.6-36.4-9.6-36.4-31c0-10.9,9.5-15.7,20.5-15.7C745.5-32.9,751.5-30.9,756.4-28z"/>
		<path d="M788.9-50.7c0,2.5-1.9,4.4-4.2,4.4s-4.2-1.9-4.2-4.4c0-2.4,1.9-4.3,4.2-4.3S788.9-53.1,788.9-50.7z M782.2,29.6v-62.4h4.9
			v62.4H782.2z"/>
		<path d="M818.7,29.6v-88.9h5v88.9H818.7z"/>
		<path d="M870.6,38.6C866.7,48,860.6,53,853.3,53c-4.6,0-8.6-1.2-11.9-3.6l2.2-4.3c2.8,1.9,6,2.9,9.5,2.9c5.6,0,10.4-4,13.4-11.3
			l2.9-7.1l-25.7-62.4h5.3l23,56.5l22.4-56.5h5.3L870.6,38.6z"/>
	</g>
</g>
</svg>
